<svg version="1.1" id="Layer_1" xmlns="http://www.w3.org/2000/svg" xmlns:xlink="http://www.w3.org/1999/xlink" x="0px" y="0px"
	 width="100%" viewBox="0 0 498 101" enable-background="new 0 0 498 101" xml:space="preserve">
<path fill="#FFFDF9" opacity="1.000000" stroke="none" 
	d="
M463.000000,102.000000 
	C309.069000,102.000000 155.137985,102.000000 1.103485,102.000000 
	C1.103485,68.417686 1.103485,34.834953 1.103485,1.000000 
	C137.354660,1.000000 273.709473,1.000000 410.325195,1.293584 
	C401.136993,4.006681 396.099457,10.580989 396.071869,20.969015 
	C396.005554,45.944096 396.034393,70.919495 396.090790,95.894630 
	C396.093781,97.225716 396.703918,98.555420 397.265686,99.967888 
	C397.499939,100.050011 397.987854,99.958397 398.450317,100.046494 
	C407.278778,100.076134 415.644775,100.017693 424.271790,99.962700 
	C424.631592,99.658714 424.730408,99.351273 424.894836,98.576553 
	C424.960449,83.640022 424.960449,69.170761 424.960449,54.701508 
	C428.301025,58.058437 430.437073,61.655273 433.027588,64.887871 
	C442.971313,77.296066 448.448914,93.319649 463.000000,102.000000 
M269.324341,68.360909 
	C268.186005,69.397438 267.047699,70.433968 265.388702,71.559433 
	C265.234711,71.644768 265.080719,71.730095 264.007660,71.668854 
	C254.350403,71.743507 244.693161,71.818161 234.564682,71.736061 
	C234.564682,71.736061 234.069260,71.701828 233.944412,70.808601 
	C233.944412,60.023014 233.944412,49.237427 233.944412,38.114235 
	C224.529739,38.114235 215.749756,38.114235 206.441025,38.075985 
	C206.318283,38.377197 206.195541,38.678410 205.905350,39.906734 
	C205.961517,59.611153 206.017670,79.315567 206.070541,99.566078 
	C206.376907,99.699356 206.683289,99.832642 207.914719,100.139870 
	C216.044235,100.152122 224.173889,100.201004 232.303238,100.169197 
	C250.546188,100.097824 268.788971,99.986366 287.684845,99.899628 
	C287.990356,99.618210 288.295898,99.336792 289.265564,99.240128 
	C296.316376,96.755875 297.781281,91.039200 297.782867,84.490540 
	C297.788055,62.866714 297.800140,41.242878 297.779083,19.619076 
	C297.767395,7.601244 293.244690,3.155777 281.057983,3.148939 
	C257.604462,3.135780 234.150879,3.128764 210.697495,3.184041 
	C209.184753,3.187606 207.673340,3.744405 205.991928,4.499682 
	C205.991928,4.499682 206.075653,4.978702 205.907227,5.905753 
	C205.962769,13.943840 206.018311,21.981926 206.070404,30.565241 
	C206.376495,30.698656 206.682602,30.832071 207.913284,31.143036 
	C226.025528,31.156494 244.137863,31.143950 262.250000,31.198427 
	C268.080261,31.215961 269.658691,32.827175 269.711914,38.567646 
	C269.799683,48.034706 269.843689,57.502178 269.717010,67.437599 
	C269.727356,67.605576 269.737732,67.773544 269.324341,68.360909 
M313.734711,99.609795 
	C314.144440,99.704094 314.554199,99.798393 315.888916,100.086349 
	C339.929474,100.045113 363.970062,100.003876 388.499786,100.040985 
	C388.499786,100.040985 388.948700,99.831490 389.645233,99.393295 
	C389.645233,90.478149 389.645233,81.562996 389.645233,72.098961 
	C370.137115,72.098961 351.248077,72.098961 332.355530,72.098961 
	C332.355530,69.794456 332.355530,68.061623 332.355530,65.847496 
	C351.566345,65.847496 370.462708,65.847496 389.450745,65.847496 
	C389.450745,56.294563 389.450745,47.232613 389.450745,37.683193 
	C370.193420,37.683193 351.278381,37.683193 332.379272,37.683193 
	C332.379272,35.285606 332.379272,33.386398 332.379272,30.965487 
	C351.607422,30.965487 370.495300,30.965487 389.529663,30.965487 
	C389.529663,21.523006 389.529663,12.611787 389.529663,3.429037 
	C361.213287,3.429037 333.166962,3.429037 304.580475,3.429037 
	C304.580475,5.503144 304.580475,7.293759 304.580475,9.084374 
	C304.580475,30.402157 304.573120,51.719940 304.585815,73.037720 
	C304.588867,78.199188 304.458313,83.371948 304.749939,88.519073 
	C305.078613,94.320770 308.033966,97.670311 313.734711,99.609795 
M201.695786,100.069221 
	C201.508820,99.168762 201.321869,98.268295 201.240433,96.696640 
	C195.089676,85.714188 188.938934,74.731735 182.462769,63.168228 
	C190.504974,63.246861 196.862930,62.152573 199.092087,53.046471 
	C198.989395,38.058323 198.886703,23.070173 198.679550,7.384701 
	C196.626404,3.568694 193.103683,3.125343 189.272308,3.130231 
	C162.966537,3.163798 136.660736,3.142905 110.354942,3.161580 
	C108.939423,3.162585 107.524040,3.362070 105.760849,3.495471 
	C105.760849,21.680799 105.760849,39.375553 105.760849,58.209450 
	C104.522942,56.302734 103.856087,55.414989 103.333290,54.449261 
	C96.287109,41.433498 89.342110,28.362200 82.202217,15.398190 
	C77.195786,6.307930 69.091331,1.985670 58.946507,2.389873 
	C47.825241,2.832980 40.416615,8.866001 36.691425,19.391108 
	C33.641129,28.009380 30.493250,36.593231 27.463434,45.218616 
	C21.186264,63.088676 14.958839,80.976212 8.357006,99.255569 
	C8.900406,99.490280 9.443806,99.724998 10.912285,100.135246 
	C35.945957,100.076744 60.979633,100.018242 86.665565,100.078033 
	C87.061203,99.725098 87.456833,99.372169 87.731300,98.337494 
	C83.951805,91.305885 80.064354,84.329109 76.449867,77.213676 
	C75.139336,74.633759 73.514893,73.743568 70.647942,73.825546 
	C63.439320,74.031662 56.220867,73.893715 48.156357,73.893715 
	C52.731827,61.036976 56.955906,49.167618 61.514359,36.358704 
	C73.236015,57.941299 84.408928,78.513527 95.913208,99.622978 
	C96.283661,99.768806 96.654106,99.914635 97.940948,100.263092 
	C109.619972,100.198692 121.299004,100.134285 133.545074,100.052299 
	C133.652649,99.713753 133.760223,99.375206 134.014679,98.104820 
	C134.014679,75.884605 134.014679,53.664391 134.014679,31.118633 
	C145.732208,31.118633 156.691772,31.164070 167.650482,31.087572 
	C170.488510,31.067762 171.339706,32.719505 170.709946,34.874432 
	C170.342331,36.132385 168.716797,37.870358 167.592117,37.920067 
	C160.948883,38.213703 154.280716,37.904778 147.632385,38.132587 
	C141.535889,38.341492 139.393951,41.827850 142.324707,47.069420 
	C152.047516,64.458389 161.990631,81.724174 172.013519,99.570877 
	C172.337296,99.697968 172.661087,99.825058 173.909348,100.133102 
	C182.941483,100.075035 191.973633,100.016968 201.695786,100.069221 
z"/>
<path fill="#EFB819" opacity="1.000000" stroke="none" 
	d="
M463.464661,102.000000 
	C448.448914,93.319649 442.971313,77.296066 433.027588,64.887871 
	C430.437073,61.655273 428.301025,58.058437 424.960449,54.701508 
	C424.960449,69.170761 424.960449,83.640022 424.709045,98.679451 
	C424.232635,99.438278 424.083710,99.674820 424.010803,99.959244 
	C415.644775,100.017693 407.278778,100.076134 398.370422,99.888306 
	C397.562531,99.723282 397.296967,99.804527 397.031433,99.885773 
	C396.703918,98.555420 396.093781,97.225716 396.090790,95.894630 
	C396.034393,70.919495 396.005554,45.944096 396.071869,20.969015 
	C396.099457,10.580989 401.136993,4.006681 410.793030,1.293584 
	C413.700012,1.000000 416.400024,1.000000 419.726135,1.304840 
	C425.991882,3.111268 429.777557,6.867266 432.963806,11.565036 
	C442.584167,25.749269 452.327942,39.849792 462.067871,54.223679 
	C462.496155,54.446362 462.880157,54.428307 463.396912,54.245476 
	C463.529633,54.080704 463.830688,53.783283 464.101379,53.945126 
	C464.581421,53.060383 464.971222,52.014107 464.973022,50.967163 
	C465.000824,34.708340 464.978363,18.449432 465.434753,2.131369 
	C474.289368,2.110715 482.676819,2.149235 491.163635,2.372870 
	C491.454468,2.775835 491.690674,2.920623 492.060974,3.454363 
	C492.164124,17.690216 492.222748,31.464199 492.179138,45.237858 
	C492.136078,58.836735 491.989624,72.435280 491.658508,86.238464 
	C491.312500,86.833580 491.196533,87.224220 491.251007,87.942871 
	C490.542114,93.374268 487.455200,96.807205 483.040344,99.164101 
	C481.080750,100.210266 479.016663,101.060715 477.000000,102.000000 
	C472.643097,102.000000 468.286194,102.000000 463.464661,102.000000 
z"/>
<path fill="#FFFEFD" opacity="1.000000" stroke="none" 
	d="
M462.023621,53.982941 
	C452.327942,39.849792 442.584167,25.749269 432.963806,11.565036 
	C429.777557,6.867266 425.991882,3.111268 420.176147,1.304840 
	C434.020905,1.000000 448.041779,1.000000 462.662567,1.204569 
	C463.384308,1.748225 463.623322,1.944788 463.824677,2.446307 
	C463.723450,19.856953 463.777069,36.820118 463.830688,53.783283 
	C463.830688,53.783283 463.529633,54.080704 463.095825,54.109016 
	C462.449249,54.085861 462.236450,54.034401 462.023621,53.982941 
z"/>
<path fill="#FFFCF7" opacity="1.000000" stroke="none" 
	d="
M491.888519,86.033974 
	C491.989624,72.435280 492.136078,58.836735 492.179138,45.237858 
	C492.222748,31.464199 492.164124,17.690216 492.109253,3.226801 
	C492.068207,2.537227 491.923615,2.095002 491.936951,1.820851 
	C491.966888,1.364467 491.983429,1.182233 492.000000,1.000000 
	C494.325439,1.000000 496.650909,1.000000 498.982239,0.999997 
	C498.988159,34.545021 498.988159,68.090050 498.988159,102.000000 
	C491.983398,102.000000 484.960480,102.000000 477.468781,102.000000 
	C479.016663,101.060715 481.080750,100.210266 483.040344,99.164101 
	C487.455200,96.807205 490.542114,93.374268 491.555481,87.802383 
	C491.755859,86.900574 491.822174,86.467270 491.888519,86.033974 
z"/>
<path fill="#F7DC9F" opacity="1.000000" stroke="none" 
	d="
M491.531342,1.000000 
	C491.983429,1.182233 491.966888,1.364467 491.720551,1.829532 
	C491.490784,2.112363 491.064240,2.187756 491.064240,2.187756 
	C482.676819,2.149235 474.289368,2.110715 465.187561,2.084365 
	C464.308624,2.063967 464.144073,2.031397 463.979523,1.998826 
	C463.623322,1.944788 463.384308,1.748225 463.131226,1.204569 
	C472.354218,1.000000 481.708466,1.000000 491.531342,1.000000 
z"/>
<path fill="#EFB819" opacity="1.000000" stroke="none" 
	d="
M8.710960,98.856560 
	C14.958839,80.976212 21.186264,63.088676 27.463434,45.218616 
	C30.493250,36.593231 33.641129,28.009380 36.691425,19.391108 
	C40.416615,8.866001 47.825241,2.832980 58.946507,2.389873 
	C69.091331,1.985670 77.195786,6.307930 82.202217,15.398190 
	C89.342110,28.362200 96.287109,41.433498 103.333290,54.449261 
	C103.856087,55.414989 104.522942,56.302734 105.760849,58.209450 
	C105.760849,39.375553 105.760849,21.680799 105.760849,3.495471 
	C107.524040,3.362070 108.939423,3.162585 110.354942,3.161580 
	C136.660736,3.142905 162.966537,3.163798 189.272308,3.130231 
	C193.103683,3.125343 196.626404,3.568694 198.480164,8.052551 
	C198.200195,23.221846 198.109985,37.723267 198.074554,52.224827 
	C198.073151,52.801041 198.592880,53.378536 198.869812,53.955429 
	C196.862930,62.152573 190.504974,63.246861 182.462769,63.168228 
	C188.938934,74.731735 195.089676,85.714188 201.148376,97.465042 
	C201.039459,98.808594 201.022614,99.383751 201.005768,99.958908 
	C191.973633,100.016968 182.941483,100.075035 173.320282,99.823074 
	C172.437210,99.354424 172.143234,99.195816 171.849243,99.037209 
	C161.990631,81.724174 152.047516,64.458389 142.324707,47.069420 
	C139.393951,41.827850 141.535889,38.341492 147.632385,38.132587 
	C154.280716,37.904778 160.948883,38.213703 167.592117,37.920067 
	C168.716797,37.870358 170.342331,36.132385 170.709946,34.874432 
	C171.339706,32.719505 170.488510,31.067762 167.650482,31.087572 
	C156.691772,31.164070 145.732208,31.118633 134.014679,31.118633 
	C134.014679,53.664391 134.014679,75.884605 133.737885,98.689034 
	C133.223007,99.492058 133.061981,99.757599 132.978027,100.069885 
	C121.299004,100.134285 109.619972,100.198692 97.315346,99.907974 
	C96.320442,99.397148 95.951149,99.241455 95.581848,99.085754 
	C84.408928,78.513527 73.236015,57.941299 61.514359,36.358704 
	C56.955906,49.167618 52.731827,61.036976 48.156357,73.893715 
	C56.220867,73.893715 63.439320,74.031662 70.647942,73.825546 
	C73.514893,73.743568 75.139336,74.633759 76.449867,77.213676 
	C80.064354,84.329109 83.951805,91.305885 87.516281,98.700027 
	C86.871941,99.361626 86.442627,99.660690 86.013306,99.959747 
	C60.979633,100.018242 35.945957,100.076744 10.299762,99.800034 
	C9.361813,99.262062 9.036386,99.059311 8.710960,98.856560 
z"/>
<path fill="#EFB91B" opacity="1.000000" stroke="none" 
	d="
M388.010620,99.962646 
	C363.970062,100.003876 339.929474,100.045113 315.226807,99.757141 
	C314.177765,99.302498 313.790802,99.177063 313.403870,99.051636 
	C308.033966,97.670311 305.078613,94.320770 304.749939,88.519073 
	C304.458313,83.371948 304.588867,78.199188 304.585815,73.037720 
	C304.573120,51.719940 304.580475,30.402157 304.580475,9.084374 
	C304.580475,7.293759 304.580475,5.503144 304.580475,3.429037 
	C333.166962,3.429037 361.213287,3.429037 389.529663,3.429037 
	C389.529663,12.611787 389.529663,21.523006 389.529663,30.965487 
	C370.495300,30.965487 351.607422,30.965487 332.379272,30.965487 
	C332.379272,33.386398 332.379272,35.285606 332.379272,37.683193 
	C351.278381,37.683193 370.193420,37.683193 389.450745,37.683193 
	C389.450745,47.232613 389.450745,56.294563 389.450745,65.847496 
	C370.462708,65.847496 351.566345,65.847496 332.355530,65.847496 
	C332.355530,68.061623 332.355530,69.794456 332.355530,72.098961 
	C351.248077,72.098961 370.137115,72.098961 389.645233,72.098961 
	C389.645233,81.562996 389.645233,90.478149 389.193817,99.474434 
	C388.498474,99.691269 388.254547,99.826958 388.010620,99.962646 
z"/>
<path fill="#EFB81A" opacity="1.000000" stroke="none" 
	d="
M206.161301,4.043851 
	C207.673340,3.744405 209.184753,3.187606 210.697495,3.184041 
	C234.150879,3.128764 257.604462,3.135780 281.057983,3.148939 
	C293.244690,3.155777 297.767395,7.601244 297.779083,19.619076 
	C297.800140,41.242878 297.788055,62.866714 297.782867,84.490540 
	C297.781281,91.039200 296.316376,96.755875 288.629395,99.205185 
	C287.672760,99.410576 287.352295,99.650909 287.031830,99.891235 
	C268.788971,99.986366 250.546188,100.097824 232.303238,100.169197 
	C224.173889,100.201004 216.044235,100.152122 207.357269,99.845108 
	C206.621078,99.287018 206.379074,99.110229 206.073837,99.019989 
	C206.017670,79.315567 205.961517,59.611153 206.185379,39.353542 
	C206.708832,38.627003 206.876953,38.398296 206.969772,38.114235 
	C215.749756,38.114235 224.529739,38.114235 233.944412,38.114235 
	C233.944412,49.237427 233.944412,60.023014 234.060486,71.458389 
	C234.463013,72.036392 234.749451,71.964600 235.035904,71.892815 
	C244.693161,71.818161 254.350403,71.743507 264.594177,71.932358 
	C265.423553,71.954079 265.666473,71.712280 265.909363,71.470490 
	C267.047699,70.433968 268.186005,69.397438 269.734192,68.092056 
	C270.241852,67.729279 270.432678,67.563789 270.423615,67.552032 
	C270.265686,67.346664 270.083221,67.160126 269.906128,66.969482 
	C269.843689,57.502178 269.799683,48.034706 269.711914,38.567646 
	C269.658691,32.827175 268.080261,31.215961 262.250000,31.198427 
	C244.137863,31.143950 226.025528,31.156494 207.356384,30.846502 
	C206.620804,30.286783 206.378937,30.110132 206.073853,30.020014 
	C206.018311,21.981926 205.962769,13.943840 206.144958,5.365827 
	C206.448013,4.733453 206.589279,4.596053 206.565704,4.556231 
	C206.455841,4.370671 206.300430,4.212085 206.161301,4.043851 
z"/>
<path fill="#EFB700" opacity="1.000000" stroke="none" 
	d="
M198.980957,53.500954 
	C198.592880,53.378536 198.073151,52.801041 198.074554,52.224827 
	C198.109985,37.723267 198.200195,23.221846 198.532394,8.401213 
	C198.886703,23.070173 198.989395,38.058323 198.980957,53.500954 
z"/>
<path fill="#EEB400" opacity="1.000000" stroke="none" 
	d="
M201.350784,100.014069 
	C201.022614,99.383751 201.039459,98.808594 201.095612,97.800636 
	C201.321869,98.268295 201.508820,99.168762 201.350784,100.014069 
z"/>
<path fill="#EEB401" opacity="1.000000" stroke="none" 
	d="
M8.533983,99.056061 
	C9.036386,99.059311 9.361813,99.262062 9.837222,99.712265 
	C9.443806,99.724998 8.900406,99.490280 8.533983,99.056061 
z"/>
<path fill="#EEB401" opacity="1.000000" stroke="none" 
	d="
M86.339432,100.018890 
	C86.442627,99.660690 86.871941,99.361626 87.576859,99.040901 
	C87.456833,99.372169 87.061203,99.725098 86.339432,100.018890 
z"/>
<path fill="#EEB400" opacity="1.000000" stroke="none" 
	d="
M397.265686,99.967896 
	C397.296967,99.804527 397.562531,99.723282 397.907959,99.800217 
	C397.987854,99.958397 397.499939,100.050011 397.265686,99.967896 
z"/>
<path fill="#EEB400" opacity="1.000000" stroke="none" 
	d="
M424.271790,99.962700 
	C424.083710,99.674820 424.232635,99.438278 424.643433,99.146729 
	C424.730408,99.351273 424.631592,99.658714 424.271790,99.962700 
z"/>
<path fill="#EEB400" opacity="1.000000" stroke="none" 
	d="
M388.255188,100.001816 
	C388.254547,99.826958 388.498474,99.691269 388.845551,99.693527 
	C388.948700,99.831490 388.499786,100.040985 388.255188,100.001816 
z"/>
<path fill="#EEB400" opacity="1.000000" stroke="none" 
	d="
M313.569275,99.330719 
	C313.790802,99.177063 314.177765,99.302498 314.764313,99.660309 
	C314.554199,99.798393 314.144440,99.704094 313.569275,99.330719 
z"/>
<path fill="#EEB400" opacity="1.000000" stroke="none" 
	d="
M287.358337,99.895432 
	C287.352295,99.650909 287.672760,99.410576 288.297302,99.112808 
	C288.295898,99.336792 287.990356,99.618210 287.358337,99.895432 
z"/>
<path fill="#EEB400" opacity="1.000000" stroke="none" 
	d="
M206.072189,99.293030 
	C206.379074,99.110229 206.621078,99.287018 206.894745,99.758133 
	C206.683289,99.832642 206.376907,99.699356 206.072189,99.293030 
z"/>
<path fill="#EEB400" opacity="1.000000" stroke="none" 
	d="
M171.931381,99.304047 
	C172.143234,99.195816 172.437210,99.354424 172.858032,99.732597 
	C172.661087,99.825058 172.337296,99.697968 171.931381,99.304047 
z"/>
<path fill="#EEB400" opacity="1.000000" stroke="none" 
	d="
M133.261551,100.061096 
	C133.061981,99.757599 133.223007,99.492058 133.664429,99.154953 
	C133.760223,99.375206 133.652649,99.713753 133.261551,100.061096 
z"/>
<path fill="#EEB400" opacity="1.000000" stroke="none" 
	d="
M95.747528,99.354370 
	C95.951149,99.241455 96.320442,99.397148 96.857147,99.806656 
	C96.654106,99.914635 96.283661,99.768806 95.747528,99.354370 
z"/>
<path fill="#EEB400" opacity="1.000000" stroke="none" 
	d="
M265.649048,71.514961 
	C265.666473,71.712280 265.423553,71.954079 265.053711,72.005646 
	C265.080719,71.730095 265.234711,71.644768 265.649048,71.514961 
z"/>
<path fill="#EEB400" opacity="1.000000" stroke="none" 
	d="
M234.800293,71.814438 
	C234.749451,71.964600 234.463013,72.036392 234.122910,71.905006 
	C234.069260,71.701828 234.564682,71.736061 234.800293,71.814438 
z"/>
<path fill="#EEB400" opacity="1.000000" stroke="none" 
	d="
M269.811584,67.203537 
	C270.083221,67.160126 270.265686,67.346664 270.423615,67.552032 
	C270.432678,67.563789 270.241852,67.729279 269.946075,67.882370 
	C269.737732,67.773544 269.727356,67.605576 269.811584,67.203537 
z"/>
<path fill="#EEB400" opacity="1.000000" stroke="none" 
	d="
M206.705399,38.095108 
	C206.876953,38.398296 206.708832,38.627003 206.269104,38.889988 
	C206.195541,38.678410 206.318283,38.377197 206.705399,38.095108 
z"/>
<path fill="#EEB400" opacity="1.000000" stroke="none" 
	d="
M206.072128,30.292627 
	C206.378937,30.110132 206.620804,30.286783 206.894073,30.757727 
	C206.682602,30.832071 206.376495,30.698656 206.072128,30.292627 
z"/>
<path fill="#EEB400" opacity="1.000000" stroke="none" 
	d="
M206.076614,4.271767 
	C206.300430,4.212085 206.455841,4.370671 206.565704,4.556231 
	C206.589279,4.596053 206.448013,4.733453 206.229156,4.902301 
	C206.075653,4.978702 205.991928,4.499682 206.076614,4.271767 
z"/>
<path fill="#EEB500" opacity="1.000000" stroke="none" 
	d="
M463.824677,2.446307 
	C464.144073,2.031397 464.308624,2.063967 464.720337,2.143540 
	C464.978363,18.449432 465.000824,34.708340 464.973022,50.967163 
	C464.971222,52.014107 464.581421,53.060383 464.101379,53.945126 
	C463.777069,36.820118 463.723450,19.856953 463.824677,2.446307 
z"/>
<path fill="#EEB500" opacity="1.000000" stroke="none" 
	d="
M491.658508,86.238464 
	C491.822174,86.467270 491.755859,86.900574 491.385071,87.474365 
	C491.196533,87.224220 491.312500,86.833580 491.658508,86.238464 
z"/>
<path fill="#F7DC9F" opacity="1.000000" stroke="none" 
	d="
M462.067871,54.223679 
	C462.236450,54.034401 462.449249,54.085861 462.963074,54.273788 
	C462.880157,54.428307 462.496155,54.446362 462.067871,54.223679 
z"/>
<path fill="#EEB500" opacity="1.000000" stroke="none" 
	d="
M491.163635,2.372870 
	C491.064240,2.187756 491.490784,2.112363 491.707214,2.103683 
	C491.923615,2.095002 492.068207,2.537227 492.019958,2.764788 
	C491.690674,2.920623 491.454468,2.775835 491.163635,2.372870 
z"/>
</svg>